<svg width="160" height="160" viewBox="0 0 160 160" fill="none" xmlns="http://www.w3.org/2000/svg">
<g filter="url(#filter0_n_106_354)">
<rect width="159.763" height="159.763" rx="79.8813" fill="url(#paint0_linear_106_354)"/>
</g>
<g clip-path="url(#clip0_106_354)">
<g opacity="0.43">
<path d="M58.7089 55.7069C58.6697 55.9642 58.5979 56.2123 58.3863 56.3625C55.063 58.7247 52.7374 61.1979 51.4094 63.7821C50.0356 66.4551 49.8202 69.2325 50.7604 72.1093C51.7019 74.9873 53.5287 77.1223 56.2396 78.5156C58.1539 79.4989 60.4874 79.9872 63.24 79.9755C65.994 79.9637 70.7785 79.2142 77.5948 77.7256C84.4112 76.2369 90.115 75.3516 94.7062 75.0669C99.2988 74.7836 103.872 75.8099 108.426 78.1499C114.101 81.0658 117.833 85.1334 119.624 90.3515C121.414 95.5695 120.897 100.921 118.076 106.409C116.524 109.432 119.85 98.6329 109.7 116.131C100.334 132.276 100.456 114.62 100.53 111.794C100.537 111.534 100.672 111.29 100.9 111.162C100.901 111.162 100.902 111.161 100.904 111.16C101.644 110.787 102.95 109.876 104.818 108.425C106.688 106.976 108.092 105.338 109.031 103.51C110.561 100.532 110.824 97.5648 109.813 94.611C108.802 91.6573 106.739 89.3773 103.618 87.7738C101.46 86.6638 99.2113 86.1206 96.8752 86.1415C94.5391 86.1624 91.127 86.6586 86.6402 87.6288L74.6607 90.1726C70.0133 91.1637 66.0044 91.5998 62.6315 91.4784C59.2599 91.3569 55.695 90.3306 51.9382 88.4006C46.3833 85.5461 42.697 81.6117 40.8819 76.5947C39.0655 71.5791 39.4781 66.4969 42.1224 61.352C43.9662 57.7636 41.446 79.5328 50.3921 51.8391C58.7977 25.8195 59.2416 52.193 58.7089 55.7056V55.7069Z" fill="#F2F2F2"/>
</g>
<path d="M103.41 71.4561V121.815C103.41 122.349 102.856 122.704 102.37 122.479L98.1775 120.538C93.4635 118.356 90.4458 113.633 90.4458 108.438V58.0794C90.4458 57.5453 90.9995 57.1901 91.4852 57.4147L95.6782 59.3564C100.392 61.5385 103.41 66.2616 103.41 71.4561Z" fill="white"/>
<path d="M68.4998 54.5568V104.915C68.4998 105.45 67.9461 105.805 67.4603 105.58L63.2674 103.638C58.5534 101.456 55.5356 96.7332 55.5356 91.5387V41.1787C55.5356 40.6446 56.0893 40.2895 56.5751 40.5141L60.768 42.4558C65.482 44.6378 68.4998 49.3609 68.4998 54.5555V54.5568Z" fill="white"/>
<path d="M85.9553 62.9659V113.325C85.9553 113.859 85.4017 114.214 84.9159 113.989L80.7229 112.047C76.0089 109.865 72.9912 105.142 72.9912 99.9478V49.5891C72.9912 49.055 73.5449 48.6999 74.0306 48.9245L78.2236 50.8662C82.9376 53.0482 85.9553 57.7713 85.9553 62.9659Z" fill="white"/>
</g>
<defs>
<filter id="filter0_n_106_354" x="0" y="0" width="159.763" height="159.763" filterUnits="userSpaceOnUse" color-interpolation-filters="sRGB">
<feFlood flood-opacity="0" result="BackgroundImageFix"/>
<feBlend mode="normal" in="SourceGraphic" in2="BackgroundImageFix" result="shape"/>
<feTurbulence type="fractalNoise" baseFrequency="2.4071333408355713 2.4071333408355713" stitchTiles="stitch" numOctaves="3" result="noise" seed="4663" />
<feColorMatrix in="noise" type="luminanceToAlpha" result="alphaNoise" />
<feComponentTransfer in="alphaNoise" result="coloredNoise1">
<feFuncA type="discrete" tableValues="0 0 0 0 0 0 0 0 0 0 0 0 0 0 1 1 1 1 1 1 1 1 1 1 1 1 1 1 1 1 1 1 1 1 1 0 0 0 0 0 0 0 0 0 0 0 0 0 0 0 0 0 0 0 0 0 0 0 0 0 0 0 0 0 0 0 0 0 0 0 0 0 0 0 0 0 0 0 0 0 0 0 0 0 0 0 0 0 0 0 0 0 0 0 0 0 0 0 0 0 "/>
</feComponentTransfer>
<feComposite operator="in" in2="shape" in="coloredNoise1" result="noise1Clipped" />
<feFlood flood-color="rgba(0, 0, 0, 0.31)" result="color1Flood" />
<feComposite operator="in" in2="noise1Clipped" in="color1Flood" result="color1" />
<feMerge result="effect1_noise_106_354">
<feMergeNode in="shape" />
<feMergeNode in="color1" />
</feMerge>
</filter>
<linearGradient id="paint0_linear_106_354" x1="0" y1="79.5443" x2="159.763" y2="79.5443" gradientUnits="userSpaceOnUse">
<stop offset="0.302885" stop-color="#BC00FF"/>
<stop offset="0.721154" stop-color="#F56CEE"/>
</linearGradient>
<clipPath id="clip0_106_354">
<rect width="80.8925" height="82.4059" fill="white" transform="translate(39.7705 40.446)"/>
</clipPath>
</defs>
</svg>
